<?xml version="1.0" encoding="UTF-8"?>
<svg version="1.1" xmlns="http://www.w3.org/2000/svg" width="192" height="192">
<path d="M0 0 C63.36 0 126.72 0 192 0 C192 63.36 192 126.72 192 192 C128.64 192 65.28 192 0 192 C0 128.64 0 65.28 0 0 Z " fill="#D2B6CB" transform="translate(0,0)"/>
<path d="M0 0 C63.36 0 126.72 0 192 0 C192 63.36 192 126.72 192 192 C128.64 192 65.28 192 0 192 C0 128.64 0 65.28 0 0 Z M14 14 C14 68.12 14 122.24 14 178 C68.12 178 122.24 178 178 178 C178 123.88 178 69.76 178 14 C123.88 14 69.76 14 14 14 Z " fill="#000000" transform="translate(0,0)"/>
<path d="M0 0 C4 0 4 0 6.5625 2.25 C11.96125511 8.3409032 15.24832613 13.60421184 15 22 C13.92621094 22.09796875 12.85242188 22.1959375 11.74609375 22.296875 C10.30980755 22.44707486 8.87361417 22.59816414 7.4375 22.75 C6.73302734 22.811875 6.02855469 22.87375 5.30273438 22.9375 C-0.85782094 23.61885174 -5.48043613 25.42932936 -9.92578125 29.96484375 C-10.61220703 30.94130859 -10.61220703 30.94130859 -11.3125 31.9375 C-11.78300781 32.58589844 -12.25351563 33.23429687 -12.73828125 33.90234375 C-16.8820088 40.79145117 -17.08022767 47.94685446 -15.41796875 55.72265625 C-13.10444379 62.55759072 -8.84238857 66.87912556 -3 71 C0.57498516 72.19166172 3.48138414 72.1325072 7.25 72.125 C8.53390625 72.12757812 9.8178125 72.13015625 11.140625 72.1328125 C15.01422448 72.08347215 15.01422448 72.08347215 18.84375 71.359375 C19.8853125 71.24078125 20.926875 71.1221875 22 71 C24.39508382 73.26202361 25.72437571 75.47631385 27.25 78.375 C29.41055105 81.61582657 32.04401906 83.73740617 35.0078125 86.234375 C38.38781511 89.22998516 41.03091732 92.76358416 43.8125 96.3125 C47.07271234 98.82752095 49.92748286 98.72849886 54 99 C54.495 97.515 54.495 97.515 55 96 C55.33 96 55.66 96 56 96 C56.33478872 104.03492923 55.18468835 110.92668757 49.94262695 117.25512695 C47.71072064 119.25983154 46.46720041 119.6182203 43.53515625 120.078125 C42.65037598 120.22878418 41.7655957 120.37944336 40.85400391 120.53466797 C39.91218262 120.68822754 38.97036133 120.84178711 38 121 C36.04942397 121.37583544 34.10022207 121.75886184 32.15234375 122.1484375 C30.63821899 122.44669434 30.63821899 122.44669434 29.09350586 122.75097656 C19.21406049 124.70439672 9.39222162 126.76284332 -0.37890625 129.203125 C-7.64114424 130.80128741 -14.83511657 131.27798099 -22.25 131.4375 C-23.13429688 131.48326172 -24.01859375 131.52902344 -24.9296875 131.57617188 C-27.42651315 131.61954573 -29.57199562 131.58872825 -32 131 C-36 126.5508982 -36 126.5508982 -36 123 C-36.53625 122.9175 -37.0725 122.835 -37.625 122.75 C-41.8252226 121.42361392 -45.08451895 119.30279995 -47.625 115.6875 C-48.305625 114.3571875 -48.305625 114.3571875 -49 113 C-49.721875 112.030625 -50.44375 111.06125 -51.1875 110.0625 C-54.30716202 104.56996764 -53.70204897 98.07974406 -53 92 C-51.44826975 86.91729175 -48.48228595 82.97975537 -45 79 C-45.495 78.2575 -45.99 77.515 -46.5 76.75 C-48.94201329 71.75979893 -48.85168173 66.39398431 -48 61 C-45.4248878 55.02680159 -41.65081626 51.09449462 -36 48 C-36.2475 47.2265625 -36.2475 47.2265625 -36.5 46.4375 C-37.62192902 40.96809603 -37.51559541 37.28858289 -34.5625 32.5 C-29.78649678 25.93992133 -23.46768979 21.89560355 -16.67480469 17.66308594 C-9.29111625 13.05166857 -2.6677595 8.80360633 0 0 Z " fill="#6C352B" transform="translate(94,29)"/>
<path d="M0 0 C0.66 0.66 1.32 1.32 2 2 C2.99 1.67 3.98 1.34 5 1 C5 1.66 5 2.32 5 3 C5.99 3 6.98 3 8 3 C8.33 3.66 8.66 4.32 9 5 C10.77503906 5.03867188 10.77503906 5.03867188 12.5859375 5.078125 C22.85175045 5.40710875 31.24053788 6.16035858 40 12 C42.15830618 12.29070512 42.15830618 12.29070512 44.52734375 12.23046875 C45.40197266 12.22853516 46.27660156 12.22660156 47.17773438 12.22460938 C48.08845703 12.21236328 48.99917969 12.20011719 49.9375 12.1875 C51.2977832 12.1865332 51.2977832 12.1865332 52.68554688 12.18554688 C56.65720889 12.15924448 60.15397156 12.02815119 64 11 C70.01924157 10.60902207 75.36805883 10.64244323 81 13 C82.11375 13.37125 83.2275 13.7425 84.375 14.125 C85.24125 14.41375 86.1075 14.7025 87 15 C87.66 13.68 88.32 12.36 89 11 C89.99 12.485 89.99 12.485 91 14 C92.96361864 14.57748803 92.96361864 14.57748803 95.125 14.6875 C96.40375 14.790625 97.6825 14.89375 99 15 C99.33 14.01 99.66 13.02 100 12 C100.33 12 100.66 12 101 12 C101.33478872 20.03492923 100.18468835 26.92668757 94.94262695 33.25512695 C92.71072064 35.25983154 91.46720041 35.6182203 88.53515625 36.078125 C87.65037598 36.22878418 86.7655957 36.37944336 85.85400391 36.53466797 C84.91218262 36.68822754 83.97036133 36.84178711 83 37 C81.04942397 37.37583544 79.10022207 37.75886184 77.15234375 38.1484375 C75.63821899 38.44669434 75.63821899 38.44669434 74.09350586 38.75097656 C64.21406049 40.70439672 54.39222162 42.76284332 44.62109375 45.203125 C37.35885576 46.80128741 30.16488343 47.27798099 22.75 47.4375 C21.86570312 47.48326172 20.98140625 47.52902344 20.0703125 47.57617188 C17.57348685 47.61954573 15.42800438 47.58872825 13 47 C9 42.5508982 9 42.5508982 9 39 C8.46375 38.9175 7.9275 38.835 7.375 38.75 C3.20898722 37.43441702 -0.01676768 35.27456042 -2.6875 31.8125 C-6.29688307 24.07810771 -8.67148213 16.45579693 -6.4609375 7.91796875 C-5.05235956 4.24173512 -3.39362805 1.98936817 0 0 Z " fill="#82412C" transform="translate(49,113)"/>
<path d="M0 0 C5.08406673 3.51042703 9.65007071 7.82434541 11.625 13.8125 C12.47960662 20.57166141 12.51731344 27.11188591 8.96875 33.09375 C5.36558706 37.70244678 1.39140416 41.27541349 -4.5390625 42.12109375 C-10.5870146 42.43789124 -14.53848539 41.45244196 -19.390625 37.76171875 C-24.86374159 32.38556682 -26.65917916 26.63349511 -26.875 19.0625 C-26.67289911 14.27944555 -26.1776493 10.81628471 -23.375 6.8125 C-22.75625 5.925625 -22.1375 5.03875 -21.5 4.125 C-15.57231199 -2.32571931 -8.11729108 -2.8560839 0 0 Z " fill="#A5704B" transform="translate(111.375,56.1875)"/>
<path d="M0 0 C5.3351736 4.33482855 10.56623491 9.47179129 12 16.4375 C12.65825551 24.6199817 12.77468732 32.03330563 9 39.4375 C8.34 40.0975 7.68 40.7575 7 41.4375 C7 42.4275 7 43.4175 7 44.4375 C7.71945801 44.67162598 8.43891602 44.90575195 9.18017578 45.14697266 C14.13935135 47.41660054 17.59515837 51.51373835 21.40429688 55.34082031 C22.87776515 56.81526699 24.37134582 58.26704791 25.8671875 59.71875 C26.7953125 60.64429688 27.7234375 61.56984375 28.6796875 62.5234375 C29.53288574 63.3695459 30.38608398 64.2156543 31.26513672 65.08740234 C33 67.4375 33 67.4375 32.93017578 69.60400391 C31.55538765 72.31388813 29.43321056 73.6905796 27 75.4375 C25.68 74.7775 24.36 74.1175 23 73.4375 C23 72.7775 23 72.1175 23 71.4375 C22.43152344 71.20675781 21.86304688 70.97601563 21.27734375 70.73828125 C18.42013025 69.10628795 16.71280628 67.11070933 14.5625 64.625 C12.16189597 61.88201474 9.79523209 59.23728249 7.1875 56.6875 C4.67978042 54.10813128 2.9098453 51.47910547 1 48.4375 C-0.0003125 48.59605469 -1.000625 48.75460938 -2.03125 48.91796875 C-18.56231396 51.25876075 -18.56231396 51.25876075 -25 47.9375 C-32.20043116 41.9371407 -37.17999958 36.08963823 -38.34765625 26.6171875 C-38.77161915 18.11618783 -36.81114891 11.73500892 -31.1328125 5.33203125 C-23.4319049 -1.93438935 -9.86353053 -5.12991655 0 0 Z M-25 7.4375 C-30.38079334 14.51749124 -30.84195639 20.74058576 -30 29.4375 C-28.09769492 36.24868016 -24.56181423 40.85665346 -18.46875 44.44140625 C-13.07375939 46.61818253 -8.18555281 46.15200765 -2.75 44.375 C2.38758431 40.75533832 6.06366309 36.46755375 8 30.4375 C8.90795885 23.05913965 8.65843414 16.65456031 4.56640625 10.3125 C0.8738308 5.89245956 -3.6248072 2.81371576 -9.453125 2.1640625 C-16.11565571 1.92212703 -20.30110206 2.52094194 -25 7.4375 Z " fill="#D0B8EF" transform="translate(115,52.5625)"/>
<path d="M0 0 C4 0 4 0 6.5625 2.25 C11.96125511 8.3409032 15.24832613 13.60421184 15 22 C13.92621094 22.09796875 12.85242188 22.1959375 11.74609375 22.296875 C10.30980755 22.44707486 8.87361417 22.59816414 7.4375 22.75 C6.73302734 22.811875 6.02855469 22.87375 5.30273438 22.9375 C-0.89268484 23.62270766 -5.5613296 25.42530814 -9.9609375 30.0703125 C-10.42757812 30.74835937 -10.89421875 31.42640625 -11.375 32.125 C-12.09816406 33.14980469 -12.09816406 33.14980469 -12.8359375 34.1953125 C-14.04193951 35.99304327 -14.04193951 35.99304327 -15 38 C-15.66 38 -16.32 38 -17 38 C-19.04370614 44.13111842 -18.03907986 50.76552084 -17 57 C-20 58 -20 58 -22.12109375 57.14453125 C-26.27662327 54.75492658 -29.71265806 52.5402144 -33 49 C-33.99 48.67 -34.98 48.34 -36 48 C-36.6875 46.375 -36.6875 46.375 -37 44 C-37.2165625 42.4221875 -37.2165625 42.4221875 -37.4375 40.8125 C-36.62971011 33.77318812 -32.40607852 28.8652821 -27 24.5 C-23.65917987 22.0496871 -20.18825575 19.85225052 -16.67480469 17.66308594 C-9.29111625 13.05166857 -2.6677595 8.80360633 0 0 Z " fill="#7A4532" transform="translate(94,29)"/>
<path d="M0 0 C1.06942352 3.20827057 0.97413864 5.21177472 0.8125 8.5625 C0.79459465 15.98426611 2.05774555 21.7868882 7.1640625 27.36328125 C12.94208415 32.66136951 16.33028476 34.14077633 24.25 34.125 C25.53390625 34.12757812 26.8178125 34.13015625 28.140625 34.1328125 C32.01422448 34.08347215 32.01422448 34.08347215 35.84375 33.359375 C36.8853125 33.24078125 37.926875 33.1221875 39 33 C41.39508382 35.26202361 42.72437571 37.47631385 44.25 40.375 C46.39230598 43.58845897 48.99450629 45.67970535 51.921875 48.16796875 C53.91822827 49.92791177 55.7647564 51.72594331 57.5625 53.6875 C58.30693359 54.49767578 58.30693359 54.49767578 59.06640625 55.32421875 C60 57 60 57 59.65234375 59.20703125 C59.43707031 59.79871094 59.22179687 60.39039063 59 61 C56.625 61.125 56.625 61.125 54 61 C53.34 60.34 52.68 59.68 52 59 C48.45839243 58.04018182 45.09488268 57.86482647 41.4375 57.875 C40.50808594 57.87242188 39.57867187 57.86984375 38.62109375 57.8671875 C36.09859972 57.90631375 36.09859972 57.90631375 34.11206055 58.49121094 C25.58452501 60.54546872 13.76123807 60.5964333 5.9375 56.5625 C4.61536924 55.72331755 3.30076118 54.87193881 2 54 C-0.65918166 53.11360611 -2.48064641 52.82010975 -5.23046875 52.68359375 C-6.43413086 52.62075195 -6.43413086 52.62075195 -7.66210938 52.55664062 C-8.49548828 52.51732422 -9.32886719 52.47800781 -10.1875 52.4375 C-11.4549707 52.37272461 -11.4549707 52.37272461 -12.74804688 52.30664062 C-14.83184433 52.20068482 -16.91590103 52.0998498 -19 52 C-19.495 50.515 -19.495 50.515 -20 49 C-20.99 49 -21.98 49 -23 49 C-23 48.34 -23 47.68 -23 47 C-24.32 47.66 -25.64 48.32 -27 49 C-26.67 46.69 -26.34 44.38 -26 42 C-24.948125 42.45375 -23.89625 42.9075 -22.8125 43.375 C-18.03823954 45.17804518 -13.23997253 45.83038461 -8.203125 46.52734375 C-5.36393816 46.94629693 -2.60745571 47.48035699 0.1875 48.125 C3.67294971 49.07456414 3.67294971 49.07456414 6 49 C7.32 49 8.64 49 10 49 C10 49.66 10 50.32 10 51 C11.12148437 50.98259766 11.12148437 50.98259766 12.265625 50.96484375 C13.74289063 50.95130859 13.74289063 50.95130859 15.25 50.9375 C16.22453125 50.92589844 17.1990625 50.91429687 18.203125 50.90234375 C21 51 21 51 22.92236328 51.49780273 C25.03999177 52.00966664 26.86480167 52.1291982 29.0390625 52.1328125 C29.78414062 52.13410156 30.52921875 52.13539062 31.296875 52.13671875 C32.06515625 52.13285156 32.8334375 52.12898438 33.625 52.125 C34.40101562 52.12886719 35.17703125 52.13273437 35.9765625 52.13671875 C40.12069379 52.23159425 40.12069379 52.23159425 44 51 C44.50379029 48.71305777 44.50379029 48.71305777 44 46 C38.62773148 40.62773148 35.16418299 39.97051031 27.80419922 39.81030273 C19.21969823 39.59157241 12.52837927 38.4938123 5 34 C5 33.34 5 32.68 5 32 C3.4840625 31.690625 3.4840625 31.690625 1.9375 31.375 C-1.13723702 30.50965485 -2.93304894 29.36980984 -5.25 27.1875 C-9.5517559 23.18951274 -14.63634804 21.23263125 -20 19 C-20.66 18.67 -21.32 18.34 -22 18 C-22 17.01 -22 16.02 -22 15 C-21.34 14.67 -20.68 14.34 -20 14 C-19.67 13.01 -19.34 12.02 -19 11 C-18.01 10.67 -17.02 10.34 -16 10 C-13.8125 11.3125 -13.8125 11.3125 -12 13 C-12 13.66 -12 14.32 -12 15 C-8.37802806 16.49140021 -4.72433382 17.7874262 -1 19 C-1.2475 17.515 -1.2475 17.515 -1.5 16 C-3.09052808 4.63579212 -3.09052808 4.63579212 0 0 Z " fill="#4D0E05" transform="translate(77,67)"/>
<path d="M0 0 C4.1546008 1.31421046 5.93157373 2.7021247 8.25 6.375 C8.75015625 7.14585938 9.2503125 7.91671875 9.765625 8.7109375 C12.10679184 13.05246841 12.0892524 16.65919631 12 21.5625 C11.90577903 26.36807423 11.90577903 26.36807423 13 31 C11.69593116 33.01920337 10.36176581 35.01924973 9 37 C9 37.99 9 38.98 9 40 C9.71945801 40.23412598 10.43891602 40.46825195 11.18017578 40.70947266 C16.13935135 42.97910054 19.59515837 47.07623835 23.40429688 50.90332031 C24.87776515 52.37776699 26.37134582 53.82954791 27.8671875 55.28125 C29.259375 56.66957031 29.259375 56.66957031 30.6796875 58.0859375 C31.53288574 58.9320459 32.38608398 59.7781543 33.26513672 60.64990234 C35 63 35 63 34.93017578 65.16650391 C33.55538765 67.87638813 31.43321056 69.2530796 29 71 C27.68 70.34 26.36 69.68 25 69 C25 68.34 25 67.68 25 67 C24.43152344 66.76925781 23.86304688 66.53851563 23.27734375 66.30078125 C20.42013025 64.66878795 18.71280628 62.67320933 16.5625 60.1875 C14.16189597 57.44451474 11.79523209 54.79978249 9.1875 52.25 C7 50 7 50 5.25 46.6875 C3.34993385 43.8121291 3.34993385 43.8121291 0.890625 43.69140625 C-1.48562476 43.71863183 -1.48562476 43.71863183 -3.78125 43.984375 C-6.37518433 44.00264214 -7.7910897 43.30526518 -10 42 C-9.27554688 41.79246094 -8.55109375 41.58492187 -7.8046875 41.37109375 C-1.1580412 39.25302913 3.35716577 37.10523786 7 31 C9.80842695 25.17836498 9.74228925 19.33570115 9 13 C7.12771544 7.83070437 4.1994964 3.57734878 0 0 Z " fill="#DABBEF" transform="translate(113,57)"/>
<path d="M0 0 C4.34629344 4.16418617 6.05132405 7.99456776 6.25 14 C6.497991 17.71616418 6.497991 17.71616418 8.5078125 20.73046875 C9.7517836 21.7011826 11.00849319 22.65579065 12.27734375 23.59375 C15.20968177 25.98749532 15.99778881 28.40383044 17 32 C17.38568743 37.12309336 17.44093371 42.03807503 16 47 C16.721875 47.061875 17.44375 47.12375 18.1875 47.1875 C22.87025937 48.54029715 25.11575632 51.71937121 27.8125 55.625 C30.31381667 62.73400527 29.48873625 70.0004293 27 77 C26.34 76.34 25.68 75.68 25 75 C25.0234375 72.8359375 25.0234375 72.8359375 25.375 70.375 C25.48585937 69.55773437 25.59671875 68.74046875 25.7109375 67.8984375 C25.80632812 67.27195312 25.90171875 66.64546875 26 66 C25.67 66.66 25.34 67.32 25 68 C23.02 68 21.04 68 19 68 C19.845625 67.2575 20.69125 66.515 21.5625 65.75 C24.23361385 63.37742634 24.23361385 63.37742634 23.92089844 61.12158203 C22.67383099 58.2485661 20.91209465 56.52299082 18.703125 54.3046875 C17.8265625 53.42425781 16.95 52.54382813 16.046875 51.63671875 C15.12390625 50.72535156 14.2009375 49.81398437 13.25 48.875 C12.3425 47.95589844 11.435 47.03679687 10.5 46.08984375 C9.17742187 44.77306641 9.17742187 44.77306641 7.828125 43.4296875 C6.6201123 42.22675049 6.6201123 42.22675049 5.38769531 40.99951172 C2.9835484 38.98622305 0.96051285 37.97390483 -2 37 C-1.3506938 33.49374651 0.17925367 31.03457721 2 28 C4.98780334 19.17790502 3.52161374 8.36383262 0 0 Z " fill="#D9985F" transform="translate(123,60)"/>
<path d="M0 0 C2.97 0.495 2.97 0.495 6 1 C6 1.66 6 2.32 6 3 C7.0209375 3.061875 7.0209375 3.061875 8.0625 3.125 C11.68537242 4.20415349 13.47133674 6.05396912 16.21875 8.56640625 C18.60996885 10.49091791 21.04267633 11.27870154 24 12 C24 12.66 24 13.32 24 14 C24.53625 13.773125 25.0725 13.54625 25.625 13.3125 C28 13 28 13 30.75 14.4375 C35.88862611 16.90799332 40.53533935 16.45896943 46 15 C47.33826703 14.7151453 48.67822255 14.43813869 50.01953125 14.16796875 C57.80271596 12.5780138 65.53116434 10.93925991 73.1875 8.8125 C86.38493724 5.19246862 86.38493724 5.19246862 90 7 C92.234972 6.45783893 92.234972 6.45783893 94.625 5.5625 C95.44226563 5.27503906 96.25953125 4.98757812 97.1015625 4.69140625 C97.72804688 4.46324219 98.35453125 4.23507813 99 4 C92.69042311 11.05188006 85.1083901 11.66610432 76.1875 13.375 C67.27277066 15.11300636 58.43266055 17.00248805 49.62109375 19.203125 C42.35885576 20.80128741 35.16488343 21.27798099 27.75 21.4375 C26.86570312 21.48326172 25.98140625 21.52902344 25.0703125 21.57617188 C22.57348685 21.61954573 20.42800438 21.58872825 18 21 C14 16.5508982 14 16.5508982 14 13 C13.46375 12.9175 12.9275 12.835 12.375 12.75 C8.01972632 11.37465042 4.82295057 9.16348184 2.1875 5.4375 C1 3 1 3 0 0 Z " fill="#300D2D" transform="translate(44,139)"/>
<path d="M0 0 C-5.6902805 1.93063088 -11.40122918 3.79627905 -17.125 5.625 C-17.79337891 5.84309326 -18.46175781 6.06118652 -19.15039062 6.28588867 C-23.42102473 7.6391327 -27.5397531 8.4418109 -32 9 C-34.36833104 9.46999438 -36.72414893 9.98053539 -39.08203125 10.5 C-49.40359074 12.26862064 -59.68991289 12.11836461 -70.125 12.0625 C-71.76562363 12.05747437 -73.40624876 12.05291335 -75.046875 12.04882812 C-79.03128742 12.03790805 -83.0156269 12.02070218 -87 12 C-87.33 11.01 -87.66 10.02 -88 9 C-89.21236328 8.94392578 -89.21236328 8.94392578 -90.44921875 8.88671875 C-92.05216797 8.78810547 -92.05216797 8.78810547 -93.6875 8.6875 C-94.74324219 8.62949219 -95.79898438 8.57148438 -96.88671875 8.51171875 C-100.27899086 7.95414328 -102.29656368 7.11158941 -105 5 C-105 4.01 -105 3.02 -105 2 C-98.45688671 1.12442969 -93.23352019 0.6451146 -87 3 C-87 3.66 -87 4.32 -87 5 C-79.40591706 8.32241129 -72.44087868 9.32607627 -64.25 9.25 C-63.02410156 9.26160156 -63.02410156 9.26160156 -61.7734375 9.2734375 C-49.64793229 9.23566334 -37.93077787 6.16709434 -26.1875 3.4375 C-24.12936981 2.95997503 -22.07100452 2.48360793 -20.01179504 2.01075745 C-18.15718673 1.58482523 -16.30353561 1.15473134 -14.44995117 0.72436523 C-4.05219166 -1.458789 -4.05219166 -1.458789 0 0 Z " fill="#8D6E97" transform="translate(136,150)"/>
<path d="M0 0 C1.06942352 3.20827057 0.97413864 5.21177472 0.8125 8.5625 C0.79466324 15.95583546 2.07914779 21.69672122 7.05859375 27.328125 C13.61666671 33.4770096 19.26078699 35.09594348 28 36 C28 36.33 28 36.66 28 37 C25.4784979 37.08172936 22.95970083 37.14083373 20.4375 37.1875 C19.73302734 37.21263672 19.02855469 37.23777344 18.30273438 37.26367188 C13.11996685 37.33532304 9.63735818 36.32172598 5 34 C5 33.34 5 32.68 5 32 C3.4840625 31.690625 3.4840625 31.690625 1.9375 31.375 C-1.13723702 30.50965485 -2.93304894 29.36980984 -5.25 27.1875 C-9.5517559 23.18951274 -14.63634804 21.23263125 -20 19 C-20.66 18.67 -21.32 18.34 -22 18 C-22 17.01 -22 16.02 -22 15 C-21.34 14.67 -20.68 14.34 -20 14 C-19.67 13.01 -19.34 12.02 -19 11 C-18.01 10.67 -17.02 10.34 -16 10 C-13.8125 11.3125 -13.8125 11.3125 -12 13 C-12 13.66 -12 14.32 -12 15 C-8.37802806 16.49140021 -4.72433382 17.7874262 -1 19 C-1.2475 17.515 -1.2475 17.515 -1.5 16 C-3.09052808 4.63579212 -3.09052808 4.63579212 0 0 Z " fill="#160307" transform="translate(77,67)"/>
<path d="M0 0 C1.51953125 1.8203125 1.51953125 1.8203125 2.8125 4.125 C5.44568539 8.42016994 8.35142557 11.35172516 12.265625 14.4921875 C14 16 14 16 16 19 C15 20 15 20 11.4375 20.0625 C10.303125 20.041875 9.16875 20.02125 8 20 C7.505 19.01 7.505 19.01 7 18 C6.40832031 18.27714844 5.81664062 18.55429688 5.20703125 18.83984375 C4.41683594 19.20207031 3.62664062 19.56429687 2.8125 19.9375 C2.03519531 20.29714844 1.25789063 20.65679687 0.45703125 21.02734375 C-4.3143982 22.91619261 -8.83016867 23.18345497 -13.9375 23.25 C-15.71447266 23.28867188 -15.71447266 23.28867188 -17.52734375 23.328125 C-21.36035765 22.96595046 -23.68138883 21.89835809 -27 20 C-28.093125 19.484375 -29.18625 18.96875 -30.3125 18.4375 C-33 17 -33 17 -34 15 C-32.68 15 -31.36 15 -30 15 C-30 15.66 -30 16.32 -30 17 C-29.25234375 16.98839844 -28.5046875 16.97679688 -27.734375 16.96484375 C-26.74953125 16.95582031 -25.7646875 16.94679688 -24.75 16.9375 C-23.28820312 16.92009766 -23.28820312 16.92009766 -21.796875 16.90234375 C-19 17 -19 17 -17.07763672 17.49780273 C-14.96000823 18.00966664 -13.13519833 18.1291982 -10.9609375 18.1328125 C-10.21585938 18.13410156 -9.47078125 18.13539062 -8.703125 18.13671875 C-7.93484375 18.13285156 -7.1665625 18.12898438 -6.375 18.125 C-5.59898438 18.12886719 -4.82296875 18.13273437 -4.0234375 18.13671875 C0.12069379 18.23159425 0.12069379 18.23159425 4 17 C4.50379029 14.71305777 4.50379029 14.71305777 4 12 C-0.60252487 7.39747513 -3.94517803 5.96357438 -10.2578125 5.75390625 C-11.04800781 5.72103516 -11.83820313 5.68816406 -12.65234375 5.65429688 C-14.30844348 5.5928145 -15.96470532 5.5355611 -17.62109375 5.48242188 C-18.40871094 5.44826172 -19.19632813 5.41410156 -20.0078125 5.37890625 C-20.72598145 5.3538501 -21.44415039 5.32879395 -22.18408203 5.30297852 C-24 5 -24 5 -26 3 C-24.02 2.67 -22.04 2.34 -20 2 C-20 1.67 -20 1.34 -20 1 C-19.16855469 0.93941406 -18.33710937 0.87882812 -17.48046875 0.81640625 C-15.85044922 0.69072266 -15.85044922 0.69072266 -14.1875 0.5625 C-13.10855469 0.48128906 -12.02960938 0.40007812 -10.91796875 0.31640625 C-1.9800544 -0.65276519 -1.9800544 -0.65276519 0 0 Z " fill="#501006" transform="translate(117,101)"/>
<path d="M0 0 C7.33770561 -0.44026234 11.86134031 0.30972027 17.625 5.25 C23.31912559 11.84319806 24.68946155 16.10812983 24.37890625 24.84375 C23.5055121 32.11903324 20.25480715 36.31734026 14.68359375 40.87109375 C10.30881515 43.80452998 5.05577313 43.60355741 0 43 C-2.4130751 41.91435325 -3.95315079 40.72366249 -6 39 C-5.01 38.505 -5.01 38.505 -4 38 C-3.401875 38.33 -2.80375 38.66 -2.1875 39 C0.60901587 40.27840726 2.07070565 39.69378024 5 39 C5.66 39.33 6.32 39.66 7 40 C7 39.34 7 38.68 7 38 C8.093125 37.401875 9.18625 36.80375 10.3125 36.1875 C14.98381025 33.61932784 14.98381025 33.61932784 17.55078125 29.1640625 C19.14701303 21.47438939 17.7636764 14.85880503 14 8 C10.21438327 3.78174136 5.31002975 2.52706738 0 1 C0 0.67 0 0.34 0 0 Z " fill="#1F0607" transform="translate(99,55)"/>
<path d="M0 0 C0.66 0.33 1.32 0.66 2 1 C1.54109375 1.3403125 1.0821875 1.680625 0.609375 2.03125 C-5.20222147 6.62192285 -8.51002303 11.70329034 -10 19 C-10.92912425 27.68198073 -8.7591478 34.40142033 -4.3125 41.8125 C-0.96419039 44.9798199 2.90122673 46.9418553 7 49 C7 49.33 7 49.66 7 50 C0.7699972 50.10048392 -2.50598172 49.11911573 -7.3125 45.0625 C-13.64270698 38.82089623 -16.09879137 32.83308394 -16.5625 24 C-16.27426047 16.75681963 -13.95824439 11.15392593 -8.9921875 5.859375 C-6.05150047 3.18996906 -3.79452658 1.26484219 0 0 Z " fill="#6377EB" transform="translate(93,52)"/>
<path d="M0 0 C0.99 0.495 0.99 0.495 2 1 C-4.71237504 6.92268386 -12.51863702 7.79558968 -21.0625 9.4375 C-27.74412868 10.73082634 -34.36677389 12.03891069 -40.9375 13.8125 C-48.82515998 15.73579243 -56.94150532 15.24419681 -65 15 C-65 14.34 -65 13.68 -65 13 C-64.32453125 12.93941406 -63.6490625 12.87882813 -62.953125 12.81640625 C-62.06109375 12.73261719 -61.1690625 12.64882812 -60.25 12.5625 C-59.36828125 12.48128906 -58.4865625 12.40007812 -57.578125 12.31640625 C-55.29158446 12.03578537 -53.22664869 11.56700083 -51 11 C-49.66173297 10.7151453 -48.32177745 10.43813869 -46.98046875 10.16796875 C-39.19728404 8.5780138 -31.46883566 6.93925991 -23.8125 4.8125 C-10.61506276 1.19246862 -10.61506276 1.19246862 -7 3 C-5.845 2.505 -4.69 2.01 -3.5 1.5 C-2.345 1.005 -1.19 0.51 0 0 Z " fill="#320B0A" transform="translate(141,143)"/>
<path d="M0 0 C4 0 4 0 6.5625 2.25 C11.96125511 8.3409032 15.24832613 13.60421184 15 22 C13.90300781 22.12117188 12.80601563 22.24234375 11.67578125 22.3671875 C10.22131177 22.53609363 8.76688696 22.70538481 7.3125 22.875 C6.59126953 22.95363281 5.87003906 23.03226563 5.12695312 23.11328125 C1.11484068 23.5896051 -2.29975512 24.26300142 -6 26 C-6 25.01 -6 24.02 -6 23 C-4.88625 22.62875 -3.7725 22.2575 -2.625 21.875 C0.45447917 20.5596759 0.88861724 20.21812457 2.5 17.0625 C2.9979849 14.01234251 2.73213875 12.88045831 2 10 C1.93451508 8.41788427 1.91421619 6.83329919 1.9375 5.25 C1.94652344 4.45078125 1.95554687 3.6515625 1.96484375 2.828125 C1.97644531 2.22484375 1.98804687 1.6215625 2 1 C1.34 0.67 0.68 0.34 0 0 Z " fill="#C48652" transform="translate(94,29)"/>
<path d="M0 0 C0.33 0 0.66 0 1 0 C1.0272415 1.41655793 1.04650467 2.83327045 1.0625 4.25 C1.07410156 5.03890625 1.08570313 5.8278125 1.09765625 6.640625 C1.00385306 8.90691002 0.63241063 10.8288895 0 13 C1.0828125 13.0928125 1.0828125 13.0928125 2.1875 13.1875 C6.87025937 14.54029715 9.11575632 17.71937121 11.8125 21.625 C14.31381667 28.73400527 13.48873625 36.0004293 11 43 C10.34 42.34 9.68 41.68 9 41 C9.0234375 38.8359375 9.0234375 38.8359375 9.375 36.375 C9.48585937 35.55773437 9.59671875 34.74046875 9.7109375 33.8984375 C9.80632812 33.27195313 9.90171875 32.64546875 10 32 C9.67 32.66 9.34 33.32 9 34 C7.02 34 5.04 34 3 34 C3.845625 33.2575 4.69125 32.515 5.5625 31.75 C6.366875 30.8425 7.17125 29.935 8 29 C7.75100354 25.45614336 6.09600574 23.74064425 3.62109375 21.328125 C2.94755859 20.66425781 2.27402344 20.00039062 1.58007812 19.31640625 C0.87302734 18.63449219 0.16597656 17.95257813 -0.5625 17.25 C-1.27341797 16.55261719 -1.98433594 15.85523437 -2.71679688 15.13671875 C-4.47130714 13.4175342 -6.23243352 11.70574128 -8 10 C-6.81664062 8.84951172 -6.81664062 8.84951172 -5.609375 7.67578125 C-3.21910396 5.22467996 -1.68512153 2.94896267 0 0 Z " fill="#D49159" transform="translate(139,94)"/>
<path d="M0 0 C3.27066566 -0.08706892 6.54103365 -0.14041241 9.8125 -0.1875 C10.74126953 -0.21263672 11.67003906 -0.23777344 12.62695312 -0.26367188 C13.9659668 -0.27817383 13.9659668 -0.27817383 15.33203125 -0.29296875 C16.56530151 -0.31653442 16.56530151 -0.31653442 17.82348633 -0.34057617 C20 0 20 0 21.8112793 1.3503418 C23 3 23 3 22.6875 5.6875 C22.460625 6.450625 22.23375 7.21375 22 8 C13.98916891 10.28619609 5.95181343 8.89490022 -2 7 C-2 6.34 -2 5.68 -2 5 C-1.34 4.67 -0.68 4.34 0 4 C0 2.68 0 1.36 0 0 Z " fill="#A86437" transform="translate(96,109)"/>
<path d="M0 0 C2 1.375 2 1.375 4 3 C4 3.66 4 4.32 4 5 C4.70898438 5.22042969 5.41796875 5.44085938 6.1484375 5.66796875 C9.63429971 7.29629617 11.98955671 9.58655385 14.625 12.3125 C15.10195312 12.78623047 15.57890625 13.25996094 16.0703125 13.74804688 C18.90075033 16.62172751 21.03296359 19.49123234 23 23 C24.31037934 24.68477344 25.63823078 26.35648543 27 28 C25.02 28.99 25.02 28.99 23 30 C22.7525 29.38125 22.505 28.7625 22.25 28.125 C21.20537742 25.88737323 21.20537742 25.88737323 19.19921875 25.16796875 C16.32467294 23.64134495 14.68747543 21.64392741 12.5625 19.1875 C10.16189597 16.44451474 7.79523209 13.79978249 5.1875 11.25 C2.20956038 8.18697639 -0.09018075 4.8196385 -2 1 C-1.34 0.67 -0.68 0.34 0 0 Z " fill="#9258C3" transform="translate(117,98)"/>
<path d="M0 0 C1.07065764 3.21197292 1.03570203 5.38551323 0.9375 8.75 C0.88422613 13.62751913 1.33895621 17.43212958 3 22 C-0.35525029 23.11841676 -0.97089854 22.91538821 -4.125 21.6875 C-4.82882813 21.42324219 -5.53265625 21.15898438 -6.2578125 20.88671875 C-8 20 -8 20 -9 18 C-10.97522846 16.95191959 -12.97481509 15.9479589 -15 15 C-13.62222717 18.3419823 -12.33357835 19.69903605 -9.1875 21.4375 C-5.56829948 23.55414435 -2.96826302 26.03173698 0 29 C2.66533035 30.319018 2.66533035 30.319018 5 31 C3 32 3 32 0.8125 31.4375 C-1.69709767 30.15481675 -3.10376098 29.06817324 -5.125 27.1875 C-9.50170974 23.24556275 -14.61572194 21.2412169 -20 19 C-20.66 18.67 -21.32 18.34 -22 18 C-22 17.01 -22 16.02 -22 15 C-21.34 14.67 -20.68 14.34 -20 14 C-19.67 13.01 -19.34 12.02 -19 11 C-18.01 10.67 -17.02 10.34 -16 10 C-13.8125 11.3125 -13.8125 11.3125 -12 13 C-12 13.66 -12 14.32 -12 15 C-8.37802806 16.49140021 -4.72433382 17.7874262 -1 19 C-1.2475 17.515 -1.2475 17.515 -1.5 16 C-3.09052808 4.63579212 -3.09052808 4.63579212 0 0 Z " fill="#39121A" transform="translate(77,67)"/>
<path d="M0 0 C0.33 0 0.66 0 1 0 C1.02578125 0.71285156 1.0515625 1.42570312 1.078125 2.16015625 C1.46135335 8.63148954 2.38348905 12.6300292 6 18 C6.6802367 19.32646156 7.35492261 20.65608877 8 22 C6.0625 21.6875 6.0625 21.6875 4 21 C3.67 20.01 3.34 19.02 3 18 C1.20841511 17.97303635 -0.58328473 17.95362083 -2.375 17.9375 C-3.87160156 17.92009766 -3.87160156 17.92009766 -5.3984375 17.90234375 C-7.98432453 17.81993398 -7.98432453 17.81993398 -10 19 C-10 18.34 -10 17.68 -10 17 C-10.66 17 -11.32 17 -12 17 C-12.33 16.34 -12.66 15.68 -13 15 C-14.98 15 -16.96 15 -19 15 C-13.46412374 10.52871533 -7.83972351 8.53304148 -1 7 C-0.67 4.69 -0.34 2.38 0 0 Z " fill="#B095BC" transform="translate(40,124)"/>
<path d="M0 0 C-5.6902805 1.93063088 -11.40122918 3.79627905 -17.125 5.625 C-17.79337891 5.84309326 -18.46175781 6.06118652 -19.15039062 6.28588867 C-23.42084074 7.63907441 -27.54085874 8.43662816 -32 9 C-33.44014627 9.32170807 -34.87794913 9.65419489 -36.3125 10 C-44.08411085 11.6195892 -52.09052463 11.67259252 -60 12 C-60 11.67 -60 11.34 -60 11 C-55.38 10.67 -50.76 10.34 -46 10 C-46 9.34 -46 8.68 -46 8 C-41.94846641 7.03457743 -37.8956964 6.07456671 -33.84179688 5.11914062 C-32.46841489 4.79470959 -31.09535601 4.46890714 -29.72265625 4.14160156 C-5.21403384 -1.69890349 -5.21403384 -1.69890349 0 0 Z " fill="#BD8070" transform="translate(136,150)"/>
<path d="M0 0 C15.14614534 -0.75625691 15.14614534 -0.75625691 21 4 C26.37717874 9.17233384 29.78122812 14.15528677 30.2109375 21.70703125 C30.39472394 32.21055212 30.39472394 32.21055212 29 35 C28.34 34.67 27.68 34.34 27 34 C27.03480469 33.154375 27.06960937 32.30875 27.10546875 31.4375 C27.30564363 23.04921932 26.74976744 17.4811025 22.3125 10.25 C16.97840002 5.06006488 11.4162582 3.57208829 4.1015625 3.17578125 C2 3 2 3 0 2 C0 1.34 0 0.68 0 0 Z " fill="#DCC1F5" transform="translate(97,51)"/>
<path d="M0 0 C0.33 0 0.66 0 1 0 C1 1.65 1 3.3 1 5 C-0.22506898 5.65357278 -1.45529516 6.29748233 -2.6875 6.9375 C-3.37199219 7.29714844 -4.05648437 7.65679687 -4.76171875 8.02734375 C-9.39006293 10.03861374 -13.93452585 10.18481467 -18.9375 10.25 C-20.71447266 10.28867188 -20.71447266 10.28867188 -22.52734375 10.328125 C-26.36035765 9.96595046 -28.68138883 8.89835809 -32 7 C-33.093125 6.484375 -34.18625 5.96875 -35.3125 5.4375 C-38 4 -38 4 -39 2 C-37.68 2 -36.36 2 -35 2 C-35 2.66 -35 3.32 -35 4 C-34.25234375 3.98839844 -33.5046875 3.97679688 -32.734375 3.96484375 C-31.74953125 3.95582031 -30.7646875 3.94679688 -29.75 3.9375 C-28.28820312 3.92009766 -28.28820312 3.92009766 -26.796875 3.90234375 C-24 4 -24 4 -22.07763672 4.49780273 C-19.96000823 5.00966664 -18.13519833 5.1291982 -15.9609375 5.1328125 C-15.21585938 5.13410156 -14.47078125 5.13539062 -13.703125 5.13671875 C-12.93484375 5.13285156 -12.1665625 5.12898438 -11.375 5.125 C-10.59898438 5.12886719 -9.82296875 5.13273437 -9.0234375 5.13671875 C-4.87930621 5.23159425 -4.87930621 5.23159425 -1 4 C-0.34786708 1.97536745 -0.34786708 1.97536745 0 0 Z " fill="#661406" transform="translate(122,114)"/>
<path d="M0 0 C1.5778125 0.680625 1.5778125 0.680625 3.1875 1.375 C7.970333 3.18128268 12.78124767 3.82752995 17.82421875 4.54296875 C27.86592958 5.98808581 35.99792523 9.3835514 45 14 C45 14.33 45 14.66 45 15 C43.64466473 14.93853355 42.29058281 14.84939173 40.9375 14.75 C40.18339844 14.70359375 39.42929688 14.6571875 38.65234375 14.609375 C35.66302212 13.92257946 33.48779092 12.53652729 30.88061523 10.96679688 C27.74972035 9.35724946 24.51504963 8.89677194 21.0625 8.375 C15.63455251 7.46137888 10.31493041 6.43946032 5 5 C5.33 5.33 5.66 5.66 6 6 C5.01 6.33 4.02 6.66 3 7 C3 6.34 3 5.68 3 5 C1.02 5.99 1.02 5.99 -1 7 C-0.67 4.69 -0.34 2.38 0 0 Z " fill="#4B0905" transform="translate(51,109)"/>
<path d="M0 0 C0.66 0.33 1.32 0.66 2 1 C-2.75158663 5.20854816 -5.87259171 6.07776645 -12.0546875 5.8671875 C-17.26078157 5.85459211 -21.88192495 6.99748369 -26.875 8.375 C-28.6360924 8.83702949 -30.397809 9.29668658 -32.16015625 9.75390625 C-32.99562988 9.97191895 -33.83110352 10.18993164 -34.69189453 10.41455078 C-41.4733499 12.13466184 -48.00134623 13.31105128 -55 13 C-52.47004423 10.47004423 -51.00775553 10.50627399 -47.5 10 C-43.52763766 9.39033288 -39.57026051 8.76746709 -35.625 8 C-34.87476562 7.855625 -34.12453125 7.71125 -33.3515625 7.5625 C-30.89557736 7.01219779 -30.89557736 7.01219779 -28.15625 6.04296875 C-24.75571412 4.91927682 -21.37132149 4.08652366 -17.875 3.3125 C-16.07675781 2.90451172 -16.07675781 2.90451172 -14.2421875 2.48828125 C-11.19800965 2.02982073 -9.85369528 2.22453933 -7 3 C-4.65429915 2.02936517 -2.31979381 1.03101947 0 0 Z " fill="#701C0A" transform="translate(141,143)"/>
<path d="M0 0 C0.66644531 0.44730469 1.33289062 0.89460937 2.01953125 1.35546875 C7.70385671 5.08406825 13.34693132 8.2631088 19.58984375 10.95703125 C22 12 22 12 24.05078125 13.09765625 C27.26747394 14.58674645 30.49138183 14.64913818 34 15 C34 15.33 34 15.66 34 16 C30.75068073 16.17455021 27.50256552 16.28091753 24.25 16.375 C22.86941406 16.45041016 22.86941406 16.45041016 21.4609375 16.52734375 C18.84620572 16.58418575 16.55534851 16.56471165 14 16 C10 11.60946746 10 11.60946746 10 8 C9.46375 7.9175 8.9275 7.835 8.375 7.75 C5.10209837 6.71645212 2.70530621 5.09046389 0 3 C0 2.01 0 1.02 0 0 Z " fill="#3D2865" transform="translate(48,144)"/>
<path d="M0 0 C0.66 0 1.32 0 2 0 C0.62523555 5.19355461 -2.74341593 8.00427491 -7 11 C-11.72622173 12.57540724 -17.33277392 13.19998973 -21.98828125 11.10546875 C-23.625 10 -23.625 10 -26 8 C-25.34 7.67 -24.68 7.34 -24 7 C-23.401875 7.33 -22.80375 7.66 -22.1875 8 C-19.39098413 9.27840726 -17.92929435 8.69378024 -15 8 C-14.34 8.33 -13.68 8.66 -13 9 C-13 8.34 -13 7.68 -13 7 C-11.27473958 6.0234375 -9.54947917 5.046875 -7.82421875 4.0703125 C-6.18017711 3.10571419 -4.58599412 2.05732941 -3 1 C-2.67 1.66 -2.34 2.32 -2 3 C-1.34 2.01 -0.68 1.02 0 0 Z " fill="#6F3C26" transform="translate(119,86)"/>
<path d="M0 0 C1.22589844 -0.01417969 2.45179687 -0.02835937 3.71484375 -0.04296875 C6.81893812 0.17073203 8.47612551 0.54751818 11.0625 2.1875 C11.0625 2.8475 11.0625 3.5075 11.0625 4.1875 C10.45921875 4.10371094 9.8559375 4.01992187 9.234375 3.93359375 C8.03554687 3.78083984 8.03554687 3.78083984 6.8125 3.625 C6.02359375 3.52058594 5.2346875 3.41617188 4.421875 3.30859375 C2.01541946 3.18508361 0.36468272 3.53747194 -1.9375 4.1875 C-7.05327567 4.91447865 -12.21183796 5.27874978 -17.375 5.4375 C-18.17808594 5.46328125 -18.98117188 5.4890625 -19.80859375 5.515625 C-22.43162642 5.11134106 -23.28561639 4.20587869 -24.9375 2.1875 C-23.88949219 2.12691406 -22.84148437 2.06632812 -21.76171875 2.00390625 C-20.38279952 1.91948262 -19.00389395 1.83483553 -17.625 1.75 C-16.93470703 1.71068359 -16.24441406 1.67136719 -15.53320312 1.63085938 C-10.1899618 1.29529349 -5.39427715 0.02830156 0 0 Z " fill="#9F5628" transform="translate(115.9375,124.8125)"/>
<path d="M0 0 C1.17691406 0.17144531 2.35382812 0.34289062 3.56640625 0.51953125 C4.98759766 0.85017578 4.98759766 0.85017578 6.4375 1.1875 C6.7675 1.8475 7.0975 2.5075 7.4375 3.1875 C20.8025 3.6825 20.8025 3.6825 34.4375 4.1875 C34.4375 4.5175 34.4375 4.8475 34.4375 5.1875 C20.5775 5.1875 6.7175 5.1875 -7.5625 5.1875 C-7.8925 3.5375 -8.2225 1.8875 -8.5625 0.1875 C-5.57553364 -1.30598318 -3.26413088 -0.49803973 0 0 Z " fill="#C69EB1" transform="translate(41.5625,157.8125)"/>
<path d="M0 0 C1.35548844 0.43338746 2.70931276 0.87197995 4.0625 1.3125 C4.81660156 1.55613281 5.57070312 1.79976563 6.34765625 2.05078125 C9 3 9 3 12.24609375 4.57421875 C16.45111573 6.40365053 20.46773572 6.44676871 25 6.5 C31.11306671 6.57179776 35.49269768 7.24634884 41 10 C34.64775289 13.17612356 22.27962513 11.34733997 15.70458984 9.27734375 C12.53793853 7.94338721 9.67502376 6.34474133 6.71484375 4.59375 C4.37192767 3.21834027 2.64597776 2.45685947 0 2 C0 1.34 0 0.68 0 0 Z " fill="#7D3B1D" transform="translate(77,99)"/>
<path d="M0 0 C1.18335938 0.26554687 2.36671875 0.53109375 3.5859375 0.8046875 C5.1822875 1.16147696 6.77864196 1.5182465 8.375 1.875 C9.19758301 2.0598999 10.02016602 2.2447998 10.86767578 2.43530273 C15.91048772 3.56150753 20.95048978 4.59604586 26.0546875 5.41015625 C28 6 28 6 29.9609375 7.484375 C32.25885073 9.19240246 33.95722984 9.65358806 36.75 10.1875 C37.54921875 10.34605469 38.3484375 10.50460938 39.171875 10.66796875 C40.07679687 10.83232422 40.07679687 10.83232422 41 11 C41 11.33 41 11.66 41 12 C35.04192172 12.49650652 30.9432159 11.96740172 25.7265625 8.97265625 C22.75474554 7.29848787 20.11116647 6.84949053 16.76953125 6.68359375 C15.96708984 6.64169922 15.16464844 6.59980469 14.33789062 6.55664062 C13.50451172 6.51732422 12.67113281 6.47800781 11.8125 6.4375 C10.96751953 6.39431641 10.12253906 6.35113281 9.25195312 6.30664062 C7.16815567 6.20068482 5.08409897 6.0998498 3 6 C2.67 4.68 2.34 3.36 2 2 C1.34 2 0.68 2 0 2 C0 1.34 0 0.68 0 0 Z " fill="#1C0402" transform="translate(55,113)"/>
<path d="M0 0 C2 3 2 3 3.04296875 4.90234375 C5.8496919 9.89313816 8.51398196 13.06309975 14 15 C16.70027946 15.55426789 19.23857716 15.80621594 22 16 C22 16.66 22 17.32 22 18 C22.66 18.66 23.32 19.32 24 20 C17.16667478 20.66128954 13.0664881 19.7080984 7.3125 15.9140625 C3.67564273 12.90382591 0.70602597 9.43875536 -1 5 C-0.64453125 2.22265625 -0.64453125 2.22265625 0 0 Z " fill="#D4B7ED" transform="translate(85,82)"/>
<path d="M0 0 C2.77141717 -0.08089542 5.54047819 -0.14044062 8.3125 -0.1875 C9.09818359 -0.21263672 9.88386719 -0.23777344 10.69335938 -0.26367188 C11.45068359 -0.27333984 12.20800781 -0.28300781 12.98828125 -0.29296875 C14.03302612 -0.31653442 14.03302612 -0.31653442 15.09887695 -0.34057617 C17.59916915 0.107338 18.49755192 0.98450632 20 3 C19.6875 5.6875 19.6875 5.6875 19 8 C10.98916891 10.28619609 2.95181343 8.89490022 -5 7 C-5 6.34 -5 5.68 -5 5 C1.52914798 4.87443946 1.52914798 4.87443946 3.875 5.5 C6.54589053 6.12844483 9.00944763 6.09512562 11.75 6.0625 C12.73484375 6.05347656 13.7196875 6.04445313 14.734375 6.03515625 C15.48203125 6.02355469 16.2296875 6.01195313 17 6 C17.33 5.34 17.66 4.68 18 4 C14.39821412 1.59880941 11.49133631 1.56228678 7.3125 1.375 C6.2596582 1.31699219 6.2596582 1.31699219 5.18554688 1.2578125 C3.45745345 1.1637666 1.72876325 1.0808032 0 1 C0 0.67 0 0.34 0 0 Z " fill="#96502B" transform="translate(99,109)"/>
<path d="M0 0 C-1.20898438 1.97338867 -1.20898438 1.97338867 -3 4 C-5.15039062 4.4699707 -5.15039062 4.4699707 -7.65625 4.42578125 C-9.05411743 4.41417969 -9.05411743 4.41417969 -10.48022461 4.40234375 C-11.47675049 4.37269531 -12.47327637 4.34304687 -13.5 4.3125 C-15.02669312 4.28929687 -15.02669312 4.28929687 -16.58422852 4.265625 C-26.06675826 4.08858827 -35.53687732 3.61836041 -45 3 C-45 2.67 -45 2.34 -45 2 C-44.13310547 1.97494385 -43.26621094 1.9498877 -42.37304688 1.92407227 C-39.12262176 1.82830546 -35.87232329 1.72911456 -32.62207031 1.62768555 C-31.22172048 1.58466974 -29.82132936 1.54297507 -28.42089844 1.50268555 C-18.93254797 1.22859268 -9.46122342 -0.19710882 0 0 Z " fill="#DEB4B8" transform="translate(91,161)"/>
<path d="M0 0 C2.625 1.4375 2.625 1.4375 5 3 C4.01 3.33 3.02 3.66 2 4 C1.34 3.67 0.68 3.34 0 3 C0.40004618 5.95978632 0.40004618 5.95978632 2 9 C3.92704579 9.75122124 5.8630794 10.49030105 7.84375 11.0859375 C11.107111 12.46931879 13.02447483 14.84168824 15.390625 17.4140625 C17.37889373 19.37337586 19.31901829 20.26882317 22 21 C20 22 20 22 17.8125 21.4375 C15.30290233 20.15481675 13.89623902 19.06817324 11.875 17.1875 C7.49829026 13.24556275 2.38427806 11.2412169 -3 9 C-3.66 8.67 -4.32 8.34 -5 8 C-5 7.01 -5 6.02 -5 5 C-4.34 4.67 -3.68 4.34 -3 4 C-2.67 3.01 -2.34 2.02 -2 1 C-1.34 0.67 -0.68 0.34 0 0 Z " fill="#53261C" transform="translate(60,77)"/>
<path d="M0 0 C0.598125 0.474375 1.19625 0.94875 1.8125 1.4375 C4.00382924 3.16465744 4.00382924 3.16465744 7 4 C8.40234375 5.42578125 8.40234375 5.42578125 9.9375 7.3125 C13.20529471 11.1598395 16.63695034 14.79096987 20.1875 18.375 C20.69853271 18.89876221 21.20956543 19.42252441 21.73608398 19.9621582 C24.30384385 22.53746907 26.59279573 24.6501291 30 26 C29.34 26.66 28.68 27.32 28 28 C24.90795205 27.89337766 23.7827421 26.80923696 21.4375 24.75 C19 22 19 22 17.625 19.62109375 C15.86804512 16.78715932 13.92558833 14.65964844 11.5625 12.3125 C10.80066406 11.54550781 10.03882813 10.77851562 9.25390625 9.98828125 C7.21394213 8.18872885 5.48540605 7.05870372 3 6 C3 5.34 3 4.68 3 4 C2.01 3.67 1.02 3.34 0 3 C0 2.01 0 1.02 0 0 Z " fill="#B28EE7" transform="translate(118,97)"/>
<path d="M0 0 C-0.33 1.32 -0.66 2.64 -1 4 C-1.66 4 -2.32 4 -3 4 C-3 5.32 -3 6.64 -3 8 C-3.78375 8.350625 -4.5675 8.70125 -5.375 9.0625 C-9.14596573 11.84583185 -9.15228205 14.74454151 -9.93359375 19.2109375 C-10.00743787 22.31239074 -9.33579481 24.22759568 -8 27 C-8.99 26.67 -9.98 26.34 -11 26 C-13.1261153 21.7477694 -12.60375666 16.60434984 -12 12 C-9.91504755 7.32753327 -5.79306342 0 0 0 Z " fill="#5C4557" transform="translate(58,78)"/>
<path d="M0 0 C3.85186528 0.56168504 5.62091364 2.24662505 8.328125 4.96484375 C9.12734375 5.76470703 9.9265625 6.56457031 10.75 7.38867188 C11.575 8.22978516 12.4 9.07089844 13.25 9.9375 C14.09046875 10.77474609 14.9309375 11.61199219 15.796875 12.47460938 C22 18.73311942 22 18.73311942 22 21 C17.1371148 20.58318127 15.13513693 18.63015855 12 15 C11.55269531 14.21625 11.10539063 13.4325 10.64453125 12.625 C8.82683593 9.72359559 6.77913314 7.61733229 4.3125 5.25 C2.85896801 3.84978736 1.4166885 2.43747848 0 1 C0 0.67 0 0.34 0 0 Z " fill="#F0D3F8" transform="translate(126,101)"/>
<path d="M0 0 C2.6875 0.0625 2.6875 0.0625 6 1 C7.20245723 2.68993989 8.39846176 4.38714293 9.5 6.14453125 C12.23027603 9.52182582 16.13366001 11.17212249 20 13 C20 13.33 20 13.66 20 14 C12.11093245 14.12724303 8.66921546 11.64641259 2.96875 6.32421875 C1.07110207 4.08393994 0.36712927 2.86491945 0 0 Z " fill="#6555E2" transform="translate(80,88)"/>
<path d="M0 0 C4.1546008 1.31421046 5.93157373 2.7021247 8.25 6.375 C8.75015625 7.14585938 9.2503125 7.91671875 9.765625 8.7109375 C12.94018517 14.59793832 12.83055094 21.48754918 12 28 C9.73913707 32.82366522 6.87047664 35.85063748 2 38 C2.63228516 37.07767578 2.63228516 37.07767578 3.27734375 36.13671875 C3.82519531 35.32847656 4.37304688 34.52023438 4.9375 33.6875 C5.48277344 32.88699219 6.02804688 32.08648437 6.58984375 31.26171875 C10.05709104 25.70067671 9.66037599 19.33227198 9 13 C7.14062796 7.83094572 4.19465607 3.57322554 0 0 Z " fill="#8C80DB" transform="translate(113,57)"/>
<path d="M0 0 C0.33 0.66 0.66 1.32 1 2 C-0.19208023 5.5762407 -0.76857961 5.67995949 -4 7.3125 C-9.84006292 10.40484592 -15.73452602 13.61206796 -20.3125 18.4375 C-20.869375 18.953125 -21.42625 19.46875 -22 20 C-24.10546875 19.59765625 -24.10546875 19.59765625 -26 19 C-20.42696132 13.46362605 -14.1423331 9.4221581 -7.4609375 5.37744141 C-6.78546875 4.96800293 -6.11 4.55856445 -5.4140625 4.13671875 C-4.8051416 3.77280029 -4.1962207 3.40888184 -3.56884766 3.03393555 C-1.82781973 1.96202514 -1.82781973 1.96202514 0 0 Z " fill="#8B5F55" transform="translate(87,40)"/>
<path d="M0 0 C2 1.1875 2 1.1875 4 3 C4.4375 5.5625 4.4375 5.5625 4 8 C0.1909541 10.53936393 -2.90346195 10.29495196 -7.3125 10.25 C-8.05951172 10.25773437 -8.80652344 10.26546875 -9.57617188 10.2734375 C-14.10259648 10.25754136 -17.73898051 9.70711751 -22 8 C-22 7.67 -22 7.34 -22 7 C-20.12054688 7.01740234 -20.12054688 7.01740234 -18.203125 7.03515625 C-16.55208483 7.04453716 -14.90104304 7.05363704 -13.25 7.0625 C-12.425 7.07087891 -11.6 7.07925781 -10.75 7.08789062 C-9.55117187 7.09272461 -9.55117187 7.09272461 -8.328125 7.09765625 C-7.22839355 7.10551147 -7.22839355 7.10551147 -6.10644531 7.11352539 C-3.9538151 6.9975109 -2.0685865 6.59073271 0 6 C0 4.02 0 2.04 0 0 Z " fill="#883C1E" transform="translate(118,110)"/>
<path d="M0 0 C0.66 0.33 1.32 0.66 2 1 C1.31164062 1.51046875 1.31164062 1.51046875 0.609375 2.03125 C-4.19227808 5.82415244 -6.61785843 9.42285338 -9 15 C-9.65920237 16.33703944 -10.32390242 17.67142396 -11 19 C-11.33 18.01 -11.66 17.02 -12 16 C-12.66 16.33 -13.32 16.66 -14 17 C-13.86199681 11.47987226 -11.52128016 8.64785647 -7.9140625 4.7734375 C-5.47445976 2.51307088 -3.13943266 1.09515093 0 0 Z " fill="#7397EE" transform="translate(93,52)"/>
<path d="M0 0 C1.32 0 2.64 0 4 0 C4 0.66 4 1.32 4 2 C4.74765625 1.98839844 5.4953125 1.97679688 6.265625 1.96484375 C7.25046875 1.95582031 8.2353125 1.94679688 9.25 1.9375 C10.71179688 1.92009766 10.71179688 1.92009766 12.203125 1.90234375 C14.70368674 1.98965387 16.60086725 2.38204156 19 3 C21.24707241 3.2198223 23.49771238 3.40483987 25.75 3.5625 C26.92046875 3.64628906 28.0909375 3.73007813 29.296875 3.81640625 C30.18890625 3.87699219 31.0809375 3.93757813 32 4 C29.24146752 6.75853248 27.60798304 6.29952472 23.75 6.3125 C16.34363701 6.20538318 9.04278926 5.41722852 2 3 C1.34 2.01 0.68 1.02 0 0 Z " fill="#77260F" transform="translate(83,116)"/>
<path d="M0 0 C2 1.375 2 1.375 4 3 C4 3.66 4 4.32 4 5 C4.66 5.33 5.32 5.66 6 6 C5.67 6.66 5.34 7.32 5 8 C6.32 8.66 7.64 9.32 9 10 C9 10.99 9 11.98 9 13 C9.60199219 13.08378906 10.20398438 13.16757813 10.82421875 13.25390625 C13.64994539 14.22287176 14.29615793 15.4041551 15.8125 17.9375 C16.25207031 18.64777344 16.69164062 19.35804687 17.14453125 20.08984375 C17.42683594 20.72019531 17.70914063 21.35054687 18 22 C17.67 22.66 17.34 23.32 17 24 C16.40832031 23.33613281 15.81664062 22.67226562 15.20703125 21.98828125 C10.31596014 16.5065846 10.31596014 16.5065846 5.1875 11.25 C2.20956038 8.18697639 -0.09018075 4.8196385 -2 1 C-1.34 0.67 -0.68 0.34 0 0 Z " fill="#8B4EB7" transform="translate(117,98)"/>
<path d="M0 0 C0.495 0.99 0.495 0.99 1 2 C0 4 0 4 -2.67578125 5.0703125 C-13.56579045 8.22853214 -23.7115635 8.4125723 -35 8 C-35 7.67 -35 7.34 -35 7 C-34.41621582 6.95512451 -33.83243164 6.91024902 -33.23095703 6.86401367 C-30.52794858 6.64974755 -27.82661048 6.41870251 -25.125 6.1875 C-24.2071875 6.11724609 -23.289375 6.04699219 -22.34375 5.97460938 C-14.43880352 5.27875141 -7.06400979 3.71901113 0 0 Z " fill="#3E0702" transform="translate(124,118)"/>
<path d="M0 0 C0.598125 0.33 1.19625 0.66 1.8125 1 C4.05386471 2.20787988 4.05386471 2.20787988 7 2 C8.82421875 3.53125 8.82421875 3.53125 10.6875 5.5 C11.31011719 6.1496875 11.93273437 6.799375 12.57421875 7.46875 C13.04472656 7.9740625 13.51523438 8.479375 14 9 C13.67 9.66 13.34 10.32 13 11 C9.625 11.125 9.625 11.125 6 11 C3.5244152 8.5244152 3.07771836 6.30051247 2 3 C1.34 2.01 0.68 1.02 0 0 Z " fill="#44080E" transform="translate(119,110)"/>
<path d="M0 0 C0.99 0.33 1.98 0.66 3 1 C3 1.33 3 1.66 3 2 C4.32 1.67 5.64 1.34 7 1 C5.32222534 3.8156426 4.34991352 4.87253502 1.22265625 6.01171875 C0.17980469 6.23472656 -0.86304687 6.45773438 -1.9375 6.6875 C-3.49791016 7.03361328 -3.49791016 7.03361328 -5.08984375 7.38671875 C-6.05019531 7.58910156 -7.01054688 7.79148438 -8 8 C-8.72316406 8.21269531 -9.44632812 8.42539063 -10.19140625 8.64453125 C-12 9 -12 9 -15 8 C-12.08974024 4.56738593 -9.44321829 4.31091493 -5.15625 3.625 C-2.67908888 2.90698228 -1.64788948 1.94366452 0 0 Z " fill="#863113" transform="translate(119,142)"/>
<path d="M0 0 C0.33 0 0.66 0 1 0 C1.35050464 5.841744 1.16727335 9.8531808 -2 15 C-3.98 13.35 -5.96 11.7 -8 10 C-7.236875 9.278125 -6.47375 8.55625 -5.6875 7.8125 C-3.28715765 5.30051382 -1.70928296 2.99124519 0 0 Z " fill="#CA8247" transform="translate(139,94)"/>
<path d="M0 0 C-0.1875 1.75 -0.1875 1.75 -1 4 C-1.804375 4.556875 -2.60875 5.11375 -3.4375 5.6875 C-7.08471737 8.97889129 -7.43577213 12.24436508 -8 17 C-8.22868475 21.49746668 -7.86158207 25.58439189 -7 30 C-9 29 -9 29 -10 26 C-10.76451174 16.13654532 -10.34471483 9.11142921 -3.875 1.5 C-2 0 -2 0 0 0 Z " fill="#54384E" transform="translate(51,109)"/>
<path d="M0 0 C2.9375 0.8125 2.9375 0.8125 6 2 C6.33 2.99 6.66 3.98 7 5 C10.63 5.66 14.26 6.32 18 7 C18 8.65 18 10.3 18 12 C12.25 10.25 12.25 10.25 10 8 C8.68553789 7.45230745 7.34892878 6.95625532 6 6.5 C3.2580731 5.57258355 2.09373802 5.09373802 0 3 C0 2.01 0 1.02 0 0 Z " fill="#160305" transform="translate(62,82)"/>
<path d="M0 0 C4.32421213 3.87687984 6.77984049 7.24969972 7.25390625 13.171875 C7.40752033 22.38871951 7.40752033 22.38871951 5 26 C4.17824205 22.81568794 3.95532621 19.8917707 4 16.625 C4.0535186 12.6311745 3.66967116 8.93431809 3 5 C2.34 5 1.68 5 1 5 C0.67 3.35 0.34 1.7 0 0 Z " fill="#3F172F" transform="translate(116,60)"/>
<path d="M0 0 C0.99 0.33 1.98 0.66 3 1 C2.525625 1.94875 2.05125 2.8975 1.5625 3.875 C-0.42757782 8.4465467 -0.71226902 13.06888627 -1 18 C-3 17 -3 17 -3.625 15.375 C-4.42466605 10.31044834 -4.63714542 7.09509369 -2 2.5625 C-1.34 1.716875 -0.68 0.87125 0 0 Z " fill="#603F4F" transform="translate(61,60)"/>
<path d="M0 0 C2.92699542 0.29476288 5.68347097 0.7000467 8.5625 1.25 C9.75262695 1.45302734 9.75262695 1.45302734 10.96679688 1.66015625 C12.99329739 2.03049879 14.99961878 2.50772683 17 3 C17.33 3.66 17.66 4.32 18 5 C17.28714844 4.84144531 16.57429688 4.68289062 15.83984375 4.51953125 C10.83022388 3.60305334 4.78127923 2.6681198 0.05859375 4.9296875 C-1.31361824 5.92703456 -2.65916461 6.96085258 -4 8 C-4.99 7.67 -5.98 7.34 -7 7 C-4.66666667 4.66666667 -2.33333333 2.33333333 0 0 Z " fill="#C29ADD" transform="translate(95,52)"/>
<path d="M0 0 C11.35353535 -0.36363636 11.35353535 -0.36363636 17 2 C18.11375 2.37125 19.2275 2.7425 20.375 3.125 C21.24125 3.41375 22.1075 3.7025 23 4 C23.33 3.34 23.66 2.68 24 2 C23.67 3.65 23.34 5.3 23 7 C22.01 7.33 21.02 7.66 20 8 C17.95436401 6.73779907 15.95597184 5.39712274 14 4 C10.8945883 2.17060652 8.33200766 1.65779008 4.75 1.375 C3.85796875 1.30023438 2.9659375 1.22546875 2.046875 1.1484375 C1.03367187 1.07496094 1.03367187 1.07496094 0 1 C0 0.67 0 0.34 0 0 Z " fill="#732C14" transform="translate(113,124)"/>
<path d="M0 0 C1.33394327 0.66544539 2.66712111 1.33242522 4 2 C5.15048828 2.56847656 5.15048828 2.56847656 6.32421875 3.1484375 C7.10410156 3.55320312 7.88398437 3.95796875 8.6875 4.375 C9.47511719 4.77460937 10.26273438 5.17421875 11.07421875 5.5859375 C13.41107984 7.30184767 13.40017316 8.26434114 14 11 C16.97503122 12.15835673 16.97503122 12.15835673 20 13 C20.33 13.66 20.66 14.32 21 15 C19.5164999 14.57742724 18.03823576 14.13643678 16.5625 13.6875 C15.73878906 13.44386719 14.91507813 13.20023438 14.06640625 12.94921875 C13.38449219 12.63597656 12.70257813 12.32273437 12 12 C11.67 11.01 11.34 10.02 11 9 C9.9171875 8.62875 9.9171875 8.62875 8.8125 8.25 C4.78819061 6.46141805 2.66338591 3.42304581 0 0 Z " fill="#39120B" transform="translate(70,89)"/>
<path d="M0 0 C4.37934119 0.51958285 8.68803391 1.05675742 13 2 C12.67 2.99 12.34 3.98 12 5 C8.11197844 5.83859288 5.77702538 6.3306491 2.0625 4.75 C1.381875 4.1725 0.70125 3.595 0 3 C0 2.01 0 1.02 0 0 Z " fill="#9F86B1" transform="translate(31,152)"/>
<path d="M0 0 C0.66 0 1.32 0 2 0 C1.67 1.65 1.34 3.3 1 5 C-4.6205161 6.95156809 -10.21079662 8.62629072 -16 10 C-17.33374451 10.33168428 -18.66718749 10.66459023 -20 11 C-20 10.34 -20 9.68 -20 9 C-14.64573502 7.10132447 -9.47161993 5.58559248 -3.84765625 4.72265625 C-1.79636216 4.13594748 -1.79636216 4.13594748 -0.74609375 1.93359375 C-0.49988281 1.29550781 -0.25367188 0.65742188 0 0 Z " fill="#E2AA95" transform="translate(144,144)"/>
<path d="M0 0 C3.4375 1.25 3.4375 1.25 7 3 C7.1340625 3.5878125 7.268125 4.175625 7.40625 4.78125 C8.31378113 8.17255052 10.564724 9.84707625 13.0625 12.25 C14.44115234 13.58804688 14.44115234 13.58804688 15.84765625 14.953125 C16.91306641 15.96632813 16.91306641 15.96632813 18 17 C17.67 17.66 17.34 18.32 17 19 C14.99387601 17.04761147 12.99507567 15.08862178 11 13.125 C10.42765625 12.56941406 9.8553125 12.01382813 9.265625 11.44140625 C7.80549218 9.99865596 6.39850702 8.5025626 5 7 C5 6.34 5 5.68 5 5 C3.35 4.67 1.7 4.34 0 4 C0 2.68 0 1.36 0 0 Z " fill="#E1C1F7" transform="translate(120,96)"/>
<path d="M0 0 C-2.95664519 1.4783226 -5.74229737 1.06032783 -9 1 C-9 1.66 -9 2.32 -9 3 C-10.32 3 -11.64 3 -13 3 C-13 3.66 -13 4.32 -13 5 C-18.94 5.33 -24.88 5.66 -31 6 C-31 5.67 -31 5.34 -31 5 C-26.38 4.67 -21.76 4.34 -17 4 C-17 3.34 -17 2.68 -17 2 C-14.91952703 1.4678559 -12.83547707 0.94968214 -10.75 0.4375 C-9.58984375 0.14746094 -8.4296875 -0.14257812 -7.234375 -0.44140625 C-4.27909017 -0.95179964 -2.75565899 -1.02996165 0 0 Z " fill="#B97E75" transform="translate(107,156)"/>
<path d="M0 0 C3.69230769 0.69230769 3.69230769 0.69230769 5 2 C5.04080783 3.99958364 5.04254356 6.00045254 5 8 C3.35 8.33 1.7 8.66 0 9 C-1.36623674 6.26752652 -1.128426 4.01801098 -1 1 C-0.67 0.67 -0.34 0.34 0 0 Z " fill="#F4F0EB" transform="translate(93,75)"/>
<path d="M0 0 C4.44926052 0.41314562 6.84100104 3.50461527 9.75 6.5625 C10.25660156 7.08263672 10.76320312 7.60277344 11.28515625 8.13867188 C12.53034405 9.41910084 13.76611502 10.70867554 15 12 C12 12 12 12 9 11 C8.34 10.01 7.68 9.02 7 8 C6.01 7.67 5.02 7.34 4 7 C3.67 6.01 3.34 5.02 3 4 C0.99983534 2.79117904 0.99983534 2.79117904 -1 2 C-0.67 1.34 -0.34 0.68 0 0 Z " fill="#9872DF" transform="translate(122,104)"/>
<path d="M0 0 C0.33 0.66 0.66 1.32 1 2 C0.21753906 2.06058594 -0.56492187 2.12117188 -1.37109375 2.18359375 C-2.88896484 2.30927734 -2.88896484 2.30927734 -4.4375 2.4375 C-5.44683594 2.51871094 -6.45617187 2.59992188 -7.49609375 2.68359375 C-9.93640779 2.73211468 -9.93640779 2.73211468 -11 4 C-12.85287502 4.07226502 -14.70833878 4.0838122 -16.5625 4.0625 C-17.57441406 4.05347656 -18.58632812 4.04445313 -19.62890625 4.03515625 C-20.41136719 4.02355469 -21.19382812 4.01195313 -22 4 C-21.34 3.01 -20.68 2.02 -20 1 C-17.28515625 0.5234375 -17.28515625 0.5234375 -14.0625 0.375 C-1.00629167 -0.29129496 -1.00629167 -0.29129496 0 0 Z " fill="#3D0A1C" transform="translate(117,101)"/>
<path d="M0 0 C1.7325 0.7115625 1.7325 0.7115625 3.5 1.4375 C7.68570332 3.02208768 11.55238986 3.60289195 16 4 C16 4.33 16 4.66 16 5 C12.37 5 8.74 5 5 5 C5.33 5.33 5.66 5.66 6 6 C5.01 6.33 4.02 6.66 3 7 C3 6.34 3 5.68 3 5 C1.02 5.99 1.02 5.99 -1 7 C-0.67 4.69 -0.34 2.38 0 0 Z " fill="#401924" transform="translate(51,109)"/>
<path d="M0 0 C1.875 2.8125 1.875 2.8125 2.875 5.8125 C0.9375 5.5 0.9375 5.5 -1.125 4.8125 C-1.455 3.8225 -1.785 2.8325 -2.125 1.8125 C-3.91658489 1.78553635 -5.70828473 1.76612083 -7.5 1.75 C-8.99660156 1.73259766 -8.99660156 1.73259766 -10.5234375 1.71484375 C-13.10932453 1.63243398 -13.10932453 1.63243398 -15.125 2.8125 C-14.795 1.8225 -14.465 0.8325 -14.125 -0.1875 C-4.17583528 -2.9230847 -4.17583528 -2.9230847 0 0 Z " fill="#776AA6" transform="translate(45.125,140.1875)"/>
<path d="M0 0 C0.05402274 2.10388569 0.09280256 4.20816714 0.125 6.3125 C0.14820313 7.48425781 0.17140625 8.65601563 0.1953125 9.86328125 C0 13 0 13 -2 16 C-3.26026798 13.47946405 -2.91874445 12.1457902 -2.5625 9.375 C-2.46066406 8.55773437 -2.35882813 7.74046875 -2.25390625 6.8984375 C-2.17011719 6.27195312 -2.08632812 5.64546875 -2 5 C-2.33 5.66 -2.66 6.32 -3 7 C-4.98 7 -6.96 7 -9 7 C-2.18421053 0 -2.18421053 0 0 0 Z " fill="#BE6F42" transform="translate(151,121)"/>
<path d="M0 0 C1.62752231 0.25523874 3.25203196 0.52974494 4.875 0.8125 C6.23238281 1.03873047 6.23238281 1.03873047 7.6171875 1.26953125 C10 2 10 2 12 5 C8.37 5 4.74 5 1 5 C0.67 3.35 0.34 1.7 0 0 Z " fill="#C8A5BE" transform="translate(33,158)"/>
<path d="M0 0 C1.32 0 2.64 0 4 0 C5.35439668 2.70879335 5.06501451 5.00933268 5 8 C3.0625 8.5625 3.0625 8.5625 1 9 C0 8 0 8 -0.09765625 6.15234375 C-0.06510417 4.1015625 -0.03255208 2.05078125 0 0 Z " fill="#F7F4F1" transform="translate(111,73)"/>
<path d="M0 0 C-0.33 0.66 -0.66 1.32 -1 2 C-2.03125 1.896875 -3.0625 1.79375 -4.125 1.6875 C-9.15723716 2.09332558 -10.46344709 3.54970448 -14 7 C-14.66 6.67 -15.32 6.34 -16 6 C-11.0864361 -0.73340238 -8.1585106 -3.03944513 0 0 Z " fill="#9C715E" transform="translate(104,57)"/>
<path d="M0 0 C2 2 2 2 2.125 5.625 C2.08375 6.73875 2.0425 7.8525 2 9 C0.35 9 -1.3 9 -3 9 C-3.75 7.3125 -3.75 7.3125 -4 5 C-2.0625 2.25 -2.0625 2.25 0 0 Z " fill="#BA6E32" transform="translate(125,89)"/>
<path d="M0 0 C1.41523533 4.24570599 -0.38651386 7.0535945 -2 11 C-2.56723607 12.49821544 -3.12997285 13.99814457 -3.6875 15.5 C-4.120625 16.655 -4.55375 17.81 -5 19 C-5.66 18.67 -6.32 18.34 -7 18 C-6.67 17.01 -6.34 16.02 -6 15 C-6.66 14.67 -7.32 14.34 -8 14 C-6.8553125 12.7625 -6.8553125 12.7625 -5.6875 11.5 C-2.70294364 7.95583932 -1.43446489 4.37889283 0 0 Z " fill="#F2C3B2" transform="translate(152,129)"/>
<path d="M0 0 C2.625 1.4375 2.625 1.4375 5 3 C4.01 3.33 3.02 3.66 2 4 C1.34 3.67 0.68 3.34 0 3 C0.33 4.98 0.66 6.96 1 9 C-1.97 8.505 -1.97 8.505 -5 8 C-5 7.01 -5 6.02 -5 5 C-4.34 4.67 -3.68 4.34 -3 4 C-2.67 3.01 -2.34 2.02 -2 1 C-1.34 0.67 -0.68 0.34 0 0 Z " fill="#3D2532" transform="translate(60,77)"/>
<path d="M0 0 C1.32 0 2.64 0 4 0 C4.66 2.64 5.32 5.28 6 8 C3.03 7.505 3.03 7.505 0 7 C-1.125 2.25 -1.125 2.25 0 0 Z " fill="#696AEF" transform="translate(79,81)"/>
<path d="M0 0 C3.36591866 1.44253657 5.51047079 3.33264727 8 6 C7.01 6.66 6.02 7.32 5 8 C1.83884224 6.63016497 1.0072908 6.0109362 -1 3 C-0.67 2.01 -0.34 1.02 0 0 Z " fill="#E19E5D" transform="translate(142,108)"/>
<path d="M0 0 C0.66 0 1.32 0 2 0 C0.60865582 4.42700422 -1.47884142 6.99413292 -5 10 C-5.99 10 -6.98 10 -8 10 C-7.00305041 6.64662411 -6.41434947 5.27286429 -3.4375 3.3125 C-2.2309375 2.6628125 -2.2309375 2.6628125 -1 2 C-0.67 1.34 -0.34 0.68 0 0 Z " fill="#4B2421" transform="translate(119,86)"/>
<path d="M0 0 C4.10447392 0.51776621 5.95699523 2.64627444 8.75 5.5625 C9.94882813 6.80193359 9.94882813 6.80193359 11.171875 8.06640625 C11.77515625 8.70449219 12.3784375 9.34257813 13 10 C12.34 10.66 11.68 11.32 11 12 C9.16364422 10.19047409 7.33083792 8.37759362 5.5 6.5625 C4.97535156 6.04623047 4.45070312 5.52996094 3.91015625 4.99804688 C2.58775448 3.68423213 1.29164432 2.34406495 0 1 C0 0.67 0 0.34 0 0 Z " fill="#F4DBEC" transform="translate(126,101)"/>
<path d="M0 0 C5.70709064 0.46588495 9.15939723 1.93757784 14 5 C14 5.33 14 5.66 14 6 C8.97294083 5.87952582 5.90127449 5.75412763 1.9375 2.4375 C1.298125 1.633125 0.65875 0.82875 0 0 Z " fill="#6033B0" transform="translate(86,96)"/>
<path d="M0 0 C6.27 0 12.54 0 19 0 C19 0.33 19 0.66 19 1 C18.21496094 1.04898438 17.42992188 1.09796875 16.62109375 1.1484375 C10.80977697 1.5620036 5.521057 2.11782148 0 4 C0 2.68 0 1.36 0 0 Z " fill="#522A27" transform="translate(57,119)"/>
<path d="M0 0 C4.455 0.99 4.455 0.99 9 2 C8.01 2.33 7.02 2.66 6 3 C6 3.66 6 4.32 6 5 C9.3 5 12.6 5 16 5 C16 5.33 16 5.66 16 6 C11.71 6 7.42 6 3 6 C2.67 4.68 2.34 3.36 2 2 C1.34 2 0.68 2 0 2 C0 1.34 0 0.68 0 0 Z " fill="#200B0E" transform="translate(55,113)"/>
<path d="M0 0 C0.33 1.32 0.66 2.64 1 4 C-0.95799514 4.33531415 -2.91640774 4.66819143 -4.875 5 C-5.96554688 5.185625 -7.05609375 5.37125 -8.1796875 5.5625 C-11 6 -11 6 -13 6 C-13 5.34 -13 4.68 -13 4 C-11.58461283 3.66127487 -10.16762037 3.32925376 -8.75 3 C-7.56664062 2.7215625 -7.56664062 2.7215625 -6.359375 2.4375 C-4 2 -4 2 0 2 C0 1.34 0 0.68 0 0 Z " fill="#9684B6" transform="translate(41,135)"/>
<path d="M0 0 C4.29 0 8.58 0 13 0 C13 0.66 13 1.32 13 2 C14.65 2.33 16.3 2.66 18 3 C14.02549507 4.51553092 10.79518851 3.49888623 6.75 2.5625 C5.48671875 2.27503906 4.2234375 1.98757812 2.921875 1.69140625 C1.95765625 1.46324219 0.9934375 1.23507813 0 1 C0 0.67 0 0.34 0 0 Z " fill="#390608" transform="translate(59,114)"/>
<path d="M0 0 C2.25 0.125 2.25 0.125 5 1 C7.3125 4.0625 7.3125 4.0625 9 7 C8.67 7.66 8.34 8.32 8 9 C3.71675909 6.48592381 1.35468295 4.87685861 0 0 Z " fill="#26060B" transform="translate(115,104)"/>
<path d="M0 0 C2.31 0.33 4.62 0.66 7 1 C7 1.66 7 2.32 7 3 C11.62 3 16.24 3 21 3 C21 3.33 21 3.66 21 4 C18.43685501 4.08132187 15.87631582 4.14064175 13.3125 4.1875 C12.2306543 4.22520508 12.2306543 4.22520508 11.12695312 4.26367188 C6.54676323 4.3264142 3.63795829 3.84865767 0 1 C0 0.67 0 0.34 0 0 Z " fill="#2D1030" transform="translate(69,155)"/>
<path d="M0 0 C2.97 0.495 2.97 0.495 6 1 C6 1.66 6 2.32 6 3 C6.53625 2.773125 7.0725 2.54625 7.625 2.3125 C11.06081901 1.86041855 13.05766694 3.32821985 16 5 C16 5.33 16 5.66 16 6 C9.58076669 5.70887831 5.37899794 4.54784971 0 1 C0 0.67 0 0.34 0 0 Z " fill="#4A0A13" transform="translate(62,150)"/>
<path d="M0 0 C-5.84560277 2.63463787 -10.54487966 4.56131481 -17 4 C-15.68 3.67 -14.36 3.34 -13 3 C-13 2.34 -13 1.68 -13 1 C-11.58622218 0.63447197 -10.16879424 0.28304505 -8.75 -0.0625 C-7.96109375 -0.25972656 -7.1721875 -0.45695313 -6.359375 -0.66015625 C-3.89605178 -1.01497267 -2.34395868 -0.76877544 0 0 Z " fill="#D69E8D" transform="translate(111,156)"/>
<path d="M0 0 C3.03346714 1.58895898 5.81796223 3.41660156 8.625 5.375 C6.8125 6.0625 6.8125 6.0625 4.625 6.375 C4.2125 5.941875 3.8 5.50875 3.375 5.0625 C0.59251819 2.37939254 -2.63689208 2.17164595 -6.375 1.375 C-3.92089461 -0.26107026 -2.9096065 -0.76568592 0 0 Z " fill="#7E6BA3" transform="translate(42.375,151.625)"/>
<path d="M0 0 C1.65 1.65 3.3 3.3 5 5 C4 6 4 6 0.4375 6.0625 C-0.696875 6.041875 -1.83125 6.02125 -3 6 C-2 4 -1 2 0 0 Z " fill="#681D17" transform="translate(128,115)"/>
<path d="M0 0 C0 0.66 0 1.32 0 2 C0.66 2.66 1.32 3.32 2 4 C0.54176788 4.0270043 -0.91660675 4.04639787 -2.375 4.0625 C-3.18710938 4.07410156 -3.99921875 4.08570312 -4.8359375 4.09765625 C-7 4 -7 4 -9 3 C-9 2.34 -9 1.68 -9 1 C-5.92677456 0.08941469 -3.19902639 -0.08886184 0 0 Z " fill="#CAA5E1" transform="translate(107,98)"/>
<path d="M0 0 C0.66 0 1.32 0 2 0 C3.7265625 1.75 3.7265625 1.75 5.625 4 C6.25664063 4.7425 6.88828125 5.485 7.5390625 6.25 C8.02117187 6.8275 8.50328125 7.405 9 8 C7.68 8.33 6.36 8.66 5 9 C4.67 8.01 4.34 7.02 4 6 C3.01 5.67 2.02 5.34 1 5 C0.67 3.35 0.34 1.7 0 0 Z " fill="#0E0814" transform="translate(79,90)"/>
<path d="M0 0 C0.66 0.33 1.32 0.66 2 1 C1.27683594 1.61488281 1.27683594 1.61488281 0.5390625 2.2421875 C-0.09257813 2.78101563 -0.72421875 3.31984375 -1.375 3.875 C-2.00148438 4.40867187 -2.62796875 4.94234375 -3.2734375 5.4921875 C-4.55836651 6.61432007 -5.79371975 7.79371975 -7 9 C-7 8.34 -7 7.68 -7 7 C-7.66 6.67 -8.32 6.34 -9 6 C-3.375 1.125 -3.375 1.125 0 0 Z " fill="#92A9E6" transform="translate(93,52)"/>
<path d="M0 0 C4 2 8 4 12 6 C8.96666395 6.22893102 6.02633186 6.35414522 3 6 C0.9375 4.125 0.9375 4.125 0 2 C0 1.34 0 0.68 0 0 Z " fill="#4E3B81" transform="translate(59,154)"/>
<path d="M0 0 C0.99 0.33 1.98 0.66 3 1 C2.09972412 2.03531726 1.17906965 3.05294165 0.25 4.0625 C-0.51570313 4.91521484 -0.51570313 4.91521484 -1.296875 5.78515625 C-3 7 -3 7 -5.203125 6.68359375 C-5.79609375 6.45800781 -6.3890625 6.23242188 -7 6 C-5.90716423 4.96704564 -4.80029421 3.94892165 -3.6875 2.9375 C-3.07261719 2.36902344 -2.45773438 1.80054688 -1.82421875 1.21484375 C-0.92123047 0.61349609 -0.92123047 0.61349609 0 0 Z " fill="#7F5B59" transform="translate(68,53)"/>
<path d="M0 0 C1.60379341 -0.05416188 3.20811406 -0.09286638 4.8125 -0.125 C5.70582031 -0.14820312 6.59914063 -0.17140625 7.51953125 -0.1953125 C10 0 10 0 13 2 C13 2.66 13 3.32 13 4 C8.51474352 3.343621 4.33085971 2.29925791 0 1 C0 0.67 0 0.34 0 0 Z " fill="#A65D2C" transform="translate(72,121)"/>
<path d="M0 0 C1.32 0 2.64 0 4 0 C4 0.66 4 1.32 4 2 C7.63 2 11.26 2 15 2 C11.62416252 4.25055832 10.81640641 4.20667458 6.9375 3.8125 C5.62072266 3.69841797 5.62072266 3.69841797 4.27734375 3.58203125 C2 3 2 3 0 0 Z " fill="#671C0F" transform="translate(83,116)"/>
<path d="M0 0 C2 1.1875 2 1.1875 4 3 C4.4375 5.5625 4.4375 5.5625 4 8 C1 10 1 10 -1.1875 9.625 C-1.785625 9.41875 -2.38375 9.2125 -3 9 C-1.68 8.34 -0.36 7.68 1 7 C0.67 4.69 0.34 2.38 0 0 Z " fill="#752D17" transform="translate(118,110)"/>
<path d="M0 0 C0.33 0 0.66 0 1 0 C1.22786458 2.01822917 1.45572917 4.03645833 1.68359375 6.0546875 C1.91292961 8.07404316 1.91292961 8.07404316 3 10 C2.34 10 1.68 10 1 10 C0.34 11.32 -0.32 12.64 -1 14 C-2.13732426 10.59598052 -1.83989957 8.22543336 -1.0625 4.75 C-0.86785156 3.85796875 -0.67320313 2.9659375 -0.47265625 2.046875 C-0.31667969 1.37140625 -0.16070312 0.6959375 0 0 Z " fill="#341009" transform="translate(118,76)"/>
<path d="M0 0 C9.41002278 -0.3690205 9.41002278 -0.3690205 14 2 C13.34 2.66 12.68 3.32 12 4 C7.8987522 3.53128597 3.95227751 2.16243456 0 1 C0 0.67 0 0.34 0 0 Z " fill="#2E0817" transform="translate(99,55)"/>
<path d="M0 0 C0.66 0.33 1.32 0.66 2 1 C2 2.98 2 4.96 2 7 C-0.64 6.67 -3.28 6.34 -6 6 C-4.68 5.67 -3.36 5.34 -2 5 C-1.855625 4.360625 -1.71125 3.72125 -1.5625 3.0625 C-1 1 -1 1 0 0 Z " fill="#CA844C" transform="translate(107,44)"/>
<path d="M0 0 C4 0 4 0 6.625 2.25 C8.57665881 4.50981547 9.8867446 6.26746402 11 9 C7.82461668 8.65978036 6.97723135 7.97533396 4.75 5.5625 C3 3 3 3 3 1 C2.01 0.67 1.02 0.34 0 0 Z " fill="#D3996F" transform="translate(94,29)"/>
<path d="M0 0 C-0.99 1.485 -0.99 1.485 -2 3 C-6.29 2.67 -10.58 2.34 -15 2 C-15 1.67 -15 1.34 -15 1 C-9.92928099 0.28832014 -5.11791642 -0.10662326 0 0 Z " fill="#E1B1A7" transform="translate(91,161)"/>
<path d="M0 0 C0.93972656 0.23396484 0.93972656 0.23396484 1.8984375 0.47265625 C3.12433594 0.76462891 3.12433594 0.76462891 4.375 1.0625 C5.59316406 1.35833984 5.59316406 1.35833984 6.8359375 1.66015625 C9.04161284 2.22109319 9.04161284 2.22109319 11 1 C11.66 1.66 12.32 2.32 13 3 C10.64304648 4.48400777 9.31400019 5.01570001 6.5 4.875 C3.50912627 3.8281942 2.06139645 2.36678851 0 0 Z " fill="#814935" transform="translate(93,93)"/>
<path d="M0 0 C4.29 0.66 8.58 1.32 13 2 C13 2.66 13 3.32 13 4 C8.65535464 3.39174965 4.32448133 2.73832608 0 2 C0 1.34 0 0.68 0 0 Z " fill="#B393B6" transform="translate(35,157)"/>
<path d="M0 0 C2.875 -0.125 2.875 -0.125 6 0 C6.66 0.66 7.32 1.32 8 2 C4.49223216 3.60355101 1.85645121 4.22036864 -2 4 C-1.34 2.68 -0.68 1.36 0 0 Z " fill="#7E2A10" transform="translate(106,147)"/>
<path d="M0 0 C6.875 2.75 6.875 2.75 8 5 C4.37673261 6.2077558 3.35853631 5.54311128 0 4 C0 2.68 0 1.36 0 0 Z " fill="#E4C7E2" transform="translate(120,96)"/>
<path d="M0 0 C0.33 0 0.66 0 1 0 C0.95875 1.051875 0.9175 2.10375 0.875 3.1875 C0.99147875 6.74010173 1.47208068 8.84866641 3 12 C2.01 11.67 1.02 11.34 0 11 C-1.62651522 7.74696956 -1.11453156 4.60774398 -1 1 C-0.67 0.67 -0.34 0.34 0 0 Z " fill="#5B3146" transform="translate(47,93)"/>
<path d="M0 0 C2.80045623 3.14591933 3.35261589 5.067064 3.1875 9.25 C3.16042969 10.14203125 3.13335937 11.0340625 3.10546875 11.953125 C3.07066406 12.62859375 3.03585938 13.3040625 3 14 C1.5078125 12.71875 1.5078125 12.71875 0 11 C-0.125 7.5 -0.125 7.5 0 4 C-0.33 3.01 -0.66 2.02 -1 1 C-0.67 0.67 -0.34 0.34 0 0 Z " fill="#C88148" transform="translate(126,87)"/>
<path d="M0 0 C2 1.375 2 1.375 4 3 C4 3.66 4 4.32 4 5 C4.66 5.33 5.32 5.66 6 6 C5.01 6.66 4.02 7.32 3 8 C1.35 5.69 -0.3 3.38 -2 1 C-1.34 0.67 -0.68 0.34 0 0 Z " fill="#7B3DA1" transform="translate(117,98)"/>
<path d="M0 0 C0.33 0.66 0.66 1.32 1 2 C1.66 2.33 2.32 2.66 3 3 C-0.63 4.32 -4.26 5.64 -8 7 C-8 6.01 -8 5.02 -8 4 C-6.865625 3.525625 -5.73125 3.05125 -4.5625 2.5625 C-1.24259834 1.36377917 -1.24259834 1.36377917 0 0 Z " fill="#A86D47" transform="translate(96,48)"/>
<path d="M0 0 C0.66 0 1.32 0 2 0 C1.67 1.98 1.34 3.96 1 6 C0.01 6 -0.98 6 -2 6 C-2 2 -2 2 0 0 Z " fill="#B35D29" transform="translate(137,102)"/>
<path d="M0 0 C0 1.32 0 2.64 0 4 C-2.31 4 -4.62 4 -7 4 C-3.375 0 -3.375 0 0 0 Z " fill="#F9D7BF" transform="translate(178,174)"/>
<path d="M0 0 C-0.33 1.32 -0.66 2.64 -1 4 C-1.66 4 -2.32 4 -3 4 C-3 5.32 -3 6.64 -3 8 C-3.66 8 -4.32 8 -5 8 C-5.36625971 3.48279689 -5.36625971 3.48279689 -3.625 1.1875 C-2 0 -2 0 0 0 Z " fill="#4C3C4E" transform="translate(58,78)"/>
<path d="M0 0 C2 1 2 1 2 1 Z M-1 1 C0.98 1.66 2.96 2.32 5 3 C4.67 3.99 4.34 4.98 4 6 C3.34 6 2.68 6 2 6 C2 5.34 2 4.68 2 4 C0.68 3.67 -0.64 3.34 -2 3 C-1.67 2.34 -1.34 1.68 -1 1 Z " fill="#9F542C" transform="translate(104,138)"/>
<path d="M0 0 C0.33 0.66 0.66 1.32 1 2 C-2.375 2.125 -2.375 2.125 -6 2 C-6.66 1.34 -7.32 0.68 -8 0 C-4.69693408 -1.10102197 -3.28414305 -0.95067299 0 0 Z " fill="#5D1A21" transform="translate(117,101)"/>
<path d="M0 0 C2.475 0.99 2.475 0.99 5 2 C5 2.66 5 3.32 5 4 C4.01 4 3.02 4 2 4 C2 4.66 2 5.32 2 6 C1.34 6 0.68 6 0 6 C0 4.02 0 2.04 0 0 Z " fill="#9C4F2C" transform="translate(138,126)"/>
<path d="M0 0 C1.231394 2.46278801 1.07159196 4.2795055 1 7 C-0.32 6.67 -1.64 6.34 -3 6 C-2.42655063 3.13275314 -2.1385485 2.1385485 0 0 Z " fill="#A6542B" transform="translate(124,91)"/>
</svg>
